# xmcd
# 
# Track frame offsets:
#     150
#     14980
#     30170
#     45285
#     56035
#     67820
#     82915
#     95122
#     106705
#     123532
#     135437
#     149390
#     163785
# 
# Disc length: 2350
# 
# Revision: 1
# Processed by: cddbd v1.5.2PL0 Copyright (c) Steve Scherf et al.
# Submitted via: BonkEnc v1.0.5
# 
DISCID=a6092c0d
DTITLE=Django Reinhardt - Django Reinhardt Lacombe Lucien
DYEAR=0
DGENRE=Jazz
TTITLE0=Minor Swing
TTITLE1=Manoir de Mes Reves
TTITLE2=Nuages
TTITLE3=Douce Ambiance
TTITLE4=Fleur d'Ennui
TTITLE5=Lentement Mademoiselle
TTITLE6=Rhythm Future
TTITLE7=Belleville
TTITLE8=Troublant Bolero
TTITLE9=Cavalerie
TTITLE10=Blues Clair
TTITLE11=Swing 41
TTITLE12=Echoes of France
EXTD=
EXTT0=
EXTT1=
EXTT2=
EXTT3=
EXTT4=
EXTT5=
EXTT6=
EXTT7=
EXTT8=
EXTT9=
EXTT10=
EXTT11=
EXTT12=
PLAYORDER=
